<svg xmlns="http://www.w3.org/2000/svg" xmlns:xlink="http://www.w3.org/1999/xlink" width="640" zoomAndPan="magnify" viewBox="0 0 480 479.999983" height="640" preserveAspectRatio="xMidYMid meet" version="1.0"><rect x="-48" width="576" fill="#ffffff" y="-47.999998" height="575.99998" fill-opacity="1"/><rect x="-48" width="576" fill="#fdfcfa" y="-47.999998" height="575.99998" fill-opacity="1"/><path fill="#122e47" d="M 104.296875 162.613281 L 99.140625 162.890625 L 98.582031 164.605469 C 98.273438 165.546875 97.703125 168.449219 97.316406 171.054688 C 96.929688 173.660156 96.492188 175.988281 96.34375 176.222656 C 96.199219 176.460938 94.867188 176.90625 93.390625 177.210938 C 91.914062 177.515625 89.308594 178.269531 87.597656 178.882812 C 85.890625 179.496094 84.246094 180 83.9375 180 C 83.628906 180 81.679688 178.207031 79.605469 176.015625 C 76.949219 173.207031 75.507812 172.03125 74.730469 172.03125 C 73.203125 172.03125 58.910156 182.757812 58.359375 184.320312 C 58.179688 184.820312 59.132812 187.019531 60.910156 190.191406 C 62.472656 192.980469 63.75 195.410156 63.75 195.59375 C 63.75 195.777344 62.789062 197.332031 61.613281 199.050781 C 60.4375 200.765625 58.957031 203.195312 58.324219 204.445312 C 57.617188 205.839844 56.859375 206.71875 56.359375 206.722656 C 55.914062 206.722656 53.152344 206.378906 50.230469 205.957031 C 45.097656 205.21875 44.882812 205.222656 44.074219 206.074219 C 43.410156 206.769531 40.257812 217.382812 38.765625 223.945312 C 38.402344 225.542969 39.597656 226.511719 44.699219 228.765625 C 47.238281 229.886719 49.382812 231.03125 49.464844 231.300781 C 49.542969 231.574219 49.722656 234.65625 49.859375 238.152344 L 50.105469 244.507812 L 45.175781 246.996094 C 41.941406 248.628906 40.070312 249.859375 39.742188 250.578125 C 39.339844 251.464844 39.5625 252.589844 40.917969 256.5 C 43.707031 264.558594 45.523438 269.046875 46.304688 269.828125 C 47.207031 270.734375 49.390625 270.507812 54.640625 268.960938 L 58.261719 267.898438 L 59.714844 269.738281 C 60.515625 270.75 62.386719 273.003906 63.867188 274.746094 C 65.347656 276.492188 66.5625 278.132812 66.5625 278.390625 C 66.5625 278.652344 65.492188 281.089844 64.1875 283.804688 C 61.019531 290.382812 61.066406 290.613281 66.09375 294.050781 C 71.542969 297.777344 77.574219 301.402344 78.347656 301.417969 C 78.695312 301.425781 80.882812 299.417969 83.203125 296.957031 L 87.421875 292.480469 L 92.097656 293.789062 L 96.773438 295.101562 L 97.097656 296.964844 C 98.71875 306.242188 99.058594 307.554688 100.007812 308.21875 C 100.785156 308.761719 102.820312 308.90625 109.78125 308.90625 C 120.277344 308.90625 119.402344 309.519531 120.953125 301.054688 L 122.003906 295.3125 L 123.933594 294.828125 C 124.992188 294.5625 127.019531 293.914062 128.4375 293.386719 L 131.015625 292.433594 L 135.332031 296.976562 C 138.640625 300.460938 139.839844 301.449219 140.480469 301.203125 C 142.003906 300.617188 154.601562 292.996094 155.917969 291.863281 L 157.214844 290.75 L 154.960938 285.648438 C 153.722656 282.84375 152.488281 280 152.21875 279.332031 C 151.773438 278.234375 151.96875 277.824219 154.261719 275.085938 C 155.65625 273.417969 157.453125 271.222656 158.253906 270.210938 L 159.707031 268.367188 L 165.285156 269.472656 C 168.351562 270.085938 171.277344 270.503906 171.792969 270.402344 C 173.160156 270.140625 179.40625 252.660156 178.78125 250.84375 C 178.457031 249.910156 177.164062 248.984375 173.441406 247.03125 L 168.535156 244.453125 L 168.683594 238.125 C 168.769531 234.648438 168.941406 231.628906 169.070312 231.421875 C 169.199219 231.210938 171.554688 229.933594 174.300781 228.578125 C 178.652344 226.429688 179.316406 225.949219 179.445312 224.835938 C 179.601562 223.53125 175.691406 209.347656 174.566406 207.125 C 174.222656 206.449219 173.65625 205.785156 173.308594 205.652344 C 172.957031 205.519531 170.578125 205.800781 168.015625 206.277344 C 165.457031 206.753906 163.019531 207.15625 162.605469 207.167969 C 162.191406 207.179688 161.050781 205.976562 160.070312 204.492188 C 159.09375 203.007812 157.335938 200.570312 156.164062 199.070312 L 154.03125 196.347656 L 156.703125 190.980469 C 158.171875 188.027344 159.375 185.101562 159.375 184.472656 C 159.375 183.589844 158.320312 182.472656 154.765625 179.59375 C 148.34375 174.394531 144.867188 172.03125 143.636719 172.03125 C 142.910156 172.03125 141.359375 173.359375 138.640625 176.304688 L 134.695312 180.582031 L 129.339844 178.828125 C 126.394531 177.863281 123.546875 176.910156 123.015625 176.710938 C 122.191406 176.402344 121.855469 175.367188 120.808594 169.898438 C 120.128906 166.347656 119.339844 163.214844 119.058594 162.933594 C 118.472656 162.34375 111.886719 162.199219 104.296875 162.613281 M 382.214844 181.839844 C 380.515625 182.570312 379.21875 184.65625 379.21875 186.660156 C 379.21875 191.914062 387.347656 193.542969 389.695312 188.757812 C 391.457031 185.171875 389.507812 181.871094 385.445312 181.578125 C 384.210938 181.488281 382.757812 181.605469 382.214844 181.839844 M 217.722656 183.703125 C 217.109375 185.273438 205.714844 215.339844 202.3125 224.371094 C 200.351562 229.570312 198.75 233.945312 198.75 234.097656 C 198.75 234.25 201.128906 234.375 204.035156 234.375 L 209.316406 234.375 L 211.191406 228.398438 L 213.0625 222.421875 L 233.1875 222.421875 L 235.058594 228.398438 L 236.933594 234.375 L 242.269531 234.375 C 247.128906 234.375 247.589844 234.300781 247.382812 233.554688 C 247.257812 233.105469 242.992188 221.871094 237.902344 208.59375 C 232.816406 195.316406 228.546875 184.09375 228.417969 183.65625 C 228.214844 182.964844 227.503906 182.867188 223.097656 182.90625 C 218.90625 182.945312 217.960938 183.085938 217.722656 183.703125 M 255.351562 186.742188 L 251.25 187.644531 L 251.25 196.875 L 245.285156 196.875 L 244.992188 199.335938 C 244.371094 204.5 244.265625 204.3125 247.851562 204.46875 L 251.015625 204.609375 L 251.25 216.328125 C 251.445312 226.042969 251.617188 228.285156 252.261719 229.453125 C 253.332031 231.398438 254.917969 232.785156 257.109375 233.703125 C 259.285156 234.613281 265.191406 235.109375 268.296875 234.644531 C 270.441406 234.320312 270.46875 234.296875 270.46875 232.535156 C 270.46875 231.558594 270.339844 229.808594 270.179688 228.65625 L 269.894531 226.554688 L 266.523438 226.769531 C 263.429688 226.96875 263.035156 226.886719 261.769531 225.800781 L 260.390625 224.613281 L 260.246094 214.496094 L 260.105469 204.375 L 270.9375 204.375 L 270.9375 196.875 L 260.15625 196.875 L 260.109375 193.710938 C 260.085938 191.972656 259.925781 189.488281 259.757812 188.191406 L 259.453125 185.835938 Z M 101.011719 186.984375 C 91.191406 189.03125 83.1875 193.171875 76.085938 199.875 C 70.910156 204.761719 68.1875 208.40625 65.625 213.875 C 57.800781 230.566406 59.980469 250.574219 71.273438 265.765625 C 82 280.195312 100.90625 287.621094 117.953125 284.105469 C 127.351562 282.164062 135.773438 277.582031 143.015625 270.46875 C 149.851562 263.753906 153.667969 257.136719 156.160156 247.6875 C 157.117188 244.058594 157.253906 242.476562 157.226562 235.546875 C 157.195312 228.523438 157.050781 227.042969 155.984375 223.070312 C 152.109375 208.636719 142.738281 197.347656 129.171875 190.769531 C 122.75 187.65625 118.3125 186.5625 111.09375 186.308594 C 106.554688 186.152344 104.28125 186.304688 101.011719 186.984375 M 105.433594 193.582031 C 101.898438 195.453125 98.636719 200.503906 96.714844 207.074219 C 96.058594 209.328125 95.695312 209.9375 95.15625 209.710938 C 90.472656 207.726562 87.148438 207 82.664062 206.976562 C 78.035156 206.953125 77.851562 206.992188 76.128906 208.386719 C 73.050781 210.878906 72.417969 212.066406 72.453125 215.308594 C 72.503906 219.734375 75.0625 224.691406 81.359375 232.550781 L 83.835938 235.648438 L 81.257812 238.175781 C 77.960938 241.410156 73.484375 248.058594 72.6875 250.910156 C 71.34375 255.699219 72.925781 259.972656 76.730469 261.835938 C 79.550781 263.21875 85.65625 263.296875 90.761719 262.015625 C 93.050781 261.441406 95.148438 260.886719 95.421875 260.78125 C 95.703125 260.675781 96.171875 261.652344 96.476562 262.976562 C 97.878906 269.050781 102.144531 275.566406 106.015625 277.539062 C 111.683594 280.429688 117.890625 275.496094 121.203125 265.460938 C 121.953125 263.1875 122.605469 261.257812 122.652344 261.167969 C 122.699219 261.082031 124.742188 261.472656 127.1875 262.039062 C 130.519531 262.808594 132.675781 263.019531 135.777344 262.886719 C 140.609375 262.679688 142.867188 261.78125 144.753906 259.304688 C 145.851562 257.863281 146.015625 257.21875 146.003906 254.332031 C 145.996094 251.394531 145.789062 250.628906 144.183594 247.609375 C 143.1875 245.734375 140.640625 242.136719 138.519531 239.617188 L 134.667969 235.035156 L 136.980469 232.28125 C 140.167969 228.484375 142.765625 224.582031 144.398438 221.121094 C 146.773438 216.105469 146.019531 210.609375 142.628906 208.230469 C 139.019531 205.695312 134.671875 205.714844 127.269531 208.296875 C 124.695312 209.195312 122.566406 209.894531 122.542969 209.847656 C 122.519531 209.804688 121.917969 208.078125 121.207031 206.015625 C 120.492188 203.953125 119.296875 201.183594 118.546875 199.863281 C 117.050781 197.222656 113.636719 193.824219 111.761719 193.113281 C 109.917969 192.410156 107.28125 192.605469 105.433594 193.582031 M 219.652344 203.320312 C 217.878906 208.671875 216.351562 213.257812 216.253906 213.515625 C 216.144531 213.820312 218.539062 213.933594 223.039062 213.84375 L 229.996094 213.703125 L 226.675781 203.671875 C 224.851562 198.152344 223.25 193.628906 223.117188 193.617188 C 222.984375 193.605469 221.421875 197.96875 219.652344 203.320312 M 286.023438 196.640625 C 278.605469 198.726562 274.015625 204.320312 272.824219 212.730469 C 271.554688 221.695312 275.484375 229.550781 283.019531 233.113281 C 285.652344 234.359375 286.847656 234.632812 290.269531 234.769531 C 301.644531 235.230469 309.195312 228.441406 310.132812 216.90625 C 310.460938 212.898438 309.46875 207.996094 307.734375 205.035156 C 306.007812 202.089844 301.804688 198.5 298.710938 197.328125 C 295.207031 196.003906 289.40625 195.6875 286.023438 196.640625 M 330.8125 196.691406 C 329.445312 197.109375 327.765625 198.152344 326.496094 199.371094 L 324.417969 201.363281 L 324.109375 198.882812 L 323.796875 196.40625 L 315.46875 196.40625 L 315.46875 234.375 L 324.789062 234.375 L 324.933594 221.601562 C 325.089844 207.769531 325.269531 206.753906 327.839844 205.066406 C 330.828125 203.113281 335.578125 203.980469 337.699219 206.871094 C 338.621094 208.121094 338.679688 208.902344 338.816406 221.285156 L 338.960938 234.375 L 348.226562 234.375 L 348.371094 221.835938 C 348.5 210.574219 348.609375 209.113281 349.417969 207.476562 C 351.109375 204.070312 356.761719 202.839844 359.9375 205.1875 C 362.4375 207.035156 362.566406 207.792969 362.722656 221.601562 L 362.867188 234.375 L 372.273438 234.375 L 372.074219 220.664062 C 371.839844 204.542969 371.574219 203.164062 368.035156 199.621094 C 364.589844 196.179688 359.660156 195.113281 354.390625 196.679688 C 352.5 197.242188 351.257812 198.054688 349.289062 200.027344 C 347.546875 201.765625 346.613281 202.414062 346.476562 201.980469 C 346.359375 201.621094 345.398438 200.453125 344.339844 199.386719 C 341.191406 196.214844 335.835938 195.144531 330.8125 196.691406 M 409.101562 196.445312 C 406.179688 197.136719 403.011719 199.011719 400.734375 201.40625 C 396.324219 206.042969 394.921875 210.070312 395.261719 217.117188 C 395.460938 221.238281 395.664062 222.082031 397.207031 225.210938 C 399.164062 229.171875 401.539062 231.511719 405.46875 233.355469 C 407.738281 234.421875 408.664062 234.570312 413.203125 234.589844 C 417.894531 234.609375 418.613281 234.492188 421.171875 233.296875 C 425.25 231.390625 430.722656 225.667969 429.550781 224.53125 C 429.324219 224.3125 427.457031 223.394531 425.402344 222.492188 L 421.667969 220.851562 L 421.042969 222.335938 C 419.695312 225.535156 417.039062 227.34375 413.679688 227.34375 C 407.578125 227.34375 404.1875 222.539062 404.628906 214.515625 C 404.871094 210.132812 405.90625 207.664062 408.453125 205.429688 C 410.386719 203.734375 412.289062 203.230469 415.140625 203.65625 C 417.523438 204.015625 420.203125 206.074219 420.664062 207.894531 C 420.824219 208.539062 421.203125 209.0625 421.503906 209.0625 C 422.4375 209.0625 429.84375 206.542969 429.84375 206.226562 C 429.84375 206.0625 429.03125 204.671875 428.039062 203.136719 C 425.910156 199.84375 422.894531 197.71875 418.84375 196.664062 C 415.820312 195.875 411.890625 195.789062 409.101562 196.445312 M 380.15625 215.390625 L 380.15625 234.375 L 389.53125 234.375 L 389.53125 196.40625 L 380.15625 196.40625 Z M 106.417969 198.578125 C 105.609375 199.257812 104.347656 201.003906 103.613281 202.460938 C 102.304688 205.050781 100.039062 211.785156 100.375 212.066406 C 100.46875 212.144531 102.582031 213.25 105.066406 214.523438 L 109.589844 216.835938 L 113.503906 214.605469 C 115.660156 213.375 117.597656 212.308594 117.816406 212.226562 C 118.4375 211.996094 116.773438 206.792969 114.964844 203.316406 C 113.125 199.777344 110.695312 197.34375 109.003906 197.34375 C 108.386719 197.34375 107.222656 197.898438 106.417969 198.578125 M 287.523438 204.335938 C 284.964844 205.496094 283.320312 207.761719 282.386719 211.40625 C 280.523438 218.667969 283.335938 225.417969 288.839844 226.898438 C 293.761719 228.222656 298.378906 225.660156 299.957031 220.722656 C 300.675781 218.488281 300.683594 212.324219 299.976562 210.113281 C 298.695312 206.117188 295.242188 203.457031 291.328125 203.457031 C 290.296875 203.457031 288.585938 203.851562 287.523438 204.335938 M 80.941406 211.433594 C 75.332031 212.386719 76.144531 217.65625 83.40625 227.460938 C 85.269531 229.976562 86.9375 232.03125 87.113281 232.03125 C 87.289062 232.03125 88.75 230.96875 90.359375 229.667969 C 93.105469 227.445312 93.28125 227.179688 93.28125 225.332031 C 93.285156 224.246094 93.605469 221.378906 94 218.957031 C 94.390625 216.539062 94.652344 214.507812 94.582031 214.453125 C 94.511719 214.394531 92.765625 213.792969 90.703125 213.113281 C 85.84375 211.519531 83.160156 211.058594 80.941406 211.433594 M 132.421875 211.609375 C 131.132812 211.96875 128.707031 212.785156 127.03125 213.417969 C 123.515625 214.742188 123.691406 214.027344 124.785156 222.625 L 125.40625 227.511719 L 128.308594 229.769531 L 131.214844 232.027344 L 133.734375 228.863281 C 138.917969 222.371094 141.09375 218.265625 141.09375 215 C 141.09375 211.785156 137.203125 210.265625 132.421875 211.609375 M 98.59375 219.960938 C 98.328125 221.832031 98.15625 223.421875 98.214844 223.496094 C 98.390625 223.722656 104.53125 219.761719 104.53125 219.421875 C 104.53125 219.160156 99.699219 216.5625 99.214844 216.5625 C 99.140625 216.5625 98.859375 218.089844 98.59375 219.960938 M 116.121094 218.242188 L 113.878906 219.40625 L 117.011719 221.507812 C 118.734375 222.660156 120.191406 223.550781 120.25 223.484375 C 120.605469 223.066406 119.335938 217.035156 118.894531 217.054688 C 118.601562 217.066406 117.351562 217.597656 116.121094 218.242188 M 103.535156 226.003906 C 100.34375 228.085938 97.6875 229.832031 97.632812 229.878906 C 97.21875 230.246094 96.972656 235.851562 97.25 238.664062 L 97.585938 242.109375 L 101.117188 244.605469 C 103.0625 245.976562 105.640625 247.652344 106.847656 248.324219 L 109.042969 249.550781 L 113.230469 246.824219 C 115.535156 245.324219 118.214844 243.476562 119.179688 242.714844 L 120.9375 241.328125 L 120.9375 229.777344 L 116.132812 226.519531 C 108.871094 221.597656 110.207031 221.652344 103.535156 226.003906 M 107.023438 229.3125 C 104.378906 230.1875 102.972656 232.132812 102.777344 235.195312 C 102.574219 238.390625 103.59375 240.429688 106.035156 241.691406 C 110.660156 244.082031 116.015625 240.914062 116.015625 235.78125 C 116.015625 231.140625 111.441406 227.847656 107.023438 229.3125 M 91.246094 234.761719 C 90.519531 235.566406 90.542969 235.6875 91.640625 236.71875 L 92.8125 237.820312 L 92.8125 235.863281 C 92.8125 233.722656 92.429688 233.453125 91.246094 234.761719 M 125.625 235.5625 C 125.625 237.058594 125.714844 237.171875 126.535156 236.734375 C 127.941406 235.980469 128.144531 235.3125 127.195312 234.59375 C 125.882812 233.597656 125.625 233.753906 125.625 235.5625 M 128.082031 241.308594 C 125.550781 243.617188 125.148438 244.207031 125.152344 245.625 C 125.152344 246.527344 124.832031 249.246094 124.4375 251.667969 C 124.046875 254.085938 123.792969 256.136719 123.875 256.21875 C 124.425781 256.769531 130.277344 257.925781 133.59375 258.140625 C 141.84375 258.667969 143.664062 255.621094 139.328125 248.535156 C 137.65625 245.804688 131.777344 238.570312 131.261719 238.613281 C 131.125 238.625 129.695312 239.839844 128.082031 241.308594 M 83.714844 242.402344 C 76.800781 249.871094 74.921875 255.910156 78.984375 257.609375 C 79.871094 257.980469 81.921875 258.269531 83.539062 258.253906 C 86.835938 258.222656 94.488281 256.417969 94.386719 255.699219 C 94.347656 255.445312 93.96875 252.703125 93.539062 249.609375 L 92.753906 243.984375 L 90.089844 241.542969 C 88.621094 240.199219 87.285156 239.089844 87.113281 239.082031 C 86.945312 239.070312 85.414062 240.566406 83.714844 242.402344 M 218.203125 244.722656 C 208.585938 246.335938 201.632812 253.421875 199.417969 263.871094 C 198.03125 270.421875 199.027344 278.398438 201.902344 283.726562 C 204.988281 289.441406 211.324219 294.359375 217.4375 295.785156 C 221.328125 296.691406 228.332031 296.191406 231.871094 294.753906 L 234.757812 293.582031 L 237.65625 297.023438 L 240.550781 300.46875 L 243.320312 298.289062 C 247.554688 294.964844 247.5 295.320312 244.304688 291.476562 L 241.488281 288.085938 L 242.644531 286.710938 C 245.902344 282.839844 247.5 277.472656 247.5 270.394531 C 247.5 266.320312 247.277344 264.652344 246.320312 261.628906 C 242.453125 249.382812 231.101562 242.558594 218.203125 244.722656 M 322.03125 245.101562 C 317.34375 246.632812 312.871094 250.417969 311.675781 253.867188 C 310.652344 256.8125 310.863281 261.875 312.117188 264.460938 C 314.15625 268.675781 317.808594 271.09375 326.554688 274.019531 C 335.242188 276.925781 337.03125 278.292969 337.03125 282.03125 C 337.03125 286.113281 334.128906 288.28125 328.664062 288.28125 C 324.109375 288.28125 320.984375 286.644531 319.269531 283.359375 C 318.597656 282.070312 317.996094 280.929688 317.933594 280.824219 C 317.816406 280.628906 314.195312 281.371094 311.09375 282.226562 C 309.046875 282.789062 308.980469 283.316406 310.5625 286.4375 C 314.03125 293.28125 320.480469 296.550781 329.710938 296.140625 C 335.535156 295.886719 338.835938 294.71875 342.128906 291.761719 C 345.421875 288.796875 346.578125 286.183594 346.578125 281.691406 C 346.578125 278.730469 346.355469 277.636719 345.300781 275.488281 C 343.121094 271.03125 340.113281 269.015625 331.148438 266.019531 C 322.722656 263.203125 320.152344 261.324219 320.15625 257.976562 C 320.164062 253.5625 325.421875 251.0625 331.117188 252.765625 C 333.355469 253.433594 337.03125 256.855469 337.03125 258.269531 C 337.03125 258.792969 337.296875 259.214844 337.617188 259.210938 C 338.492188 259.199219 345.042969 257.457031 345.34375 257.15625 C 345.488281 257.011719 345.238281 255.9375 344.792969 254.769531 C 343.570312 251.566406 339.957031 247.894531 336.464844 246.300781 C 333.871094 245.117188 332.894531 244.941406 328.359375 244.839844 C 325.523438 244.773438 322.675781 244.890625 322.03125 245.101562 M 254.234375 270.46875 L 254.171875 295.78125 L 263.460938 295.78125 L 263.332031 278.4375 C 263.261719 268.898438 263.308594 261.097656 263.4375 261.101562 C 263.566406 261.105469 264.496094 263.160156 265.507812 265.671875 C 266.515625 268.179688 269.019531 274.296875 271.070312 279.257812 L 274.800781 288.28125 L 282.503906 288.28125 L 288.324219 274.664062 L 294.140625 261.050781 L 294.261719 278.414062 L 294.386719 295.78125 L 303.265625 295.78125 L 303.515625 245.15625 L 292.125 245.15625 L 290.515625 249.023438 C 289.632812 251.152344 286.710938 258.210938 284.023438 264.714844 C 281.339844 271.21875 279.027344 276.546875 278.886719 276.550781 C 278.746094 276.558594 275.792969 269.5 272.324219 260.867188 L 266.015625 245.175781 L 254.296875 245.160156 Z M 98.101562 248.960938 C 98.25 249.574219 98.515625 251.082031 98.691406 252.304688 C 98.867188 253.527344 99.101562 254.53125 99.210938 254.53125 C 99.605469 254.53125 104.152344 252.121094 103.992188 251.996094 C 103.902344 251.921875 102.480469 250.960938 100.832031 249.855469 C 98.042969 247.984375 97.855469 247.921875 98.101562 248.960938 M 116.835938 249.910156 C 115.226562 250.972656 113.90625 251.984375 113.90625 252.160156 C 113.90625 252.523438 119.03125 254.738281 119.246094 254.46875 C 119.535156 254.101562 120.273438 247.96875 120.027344 247.972656 C 119.882812 247.976562 118.449219 248.847656 116.835938 249.910156 M 218.734375 253.609375 C 215.027344 254.71875 211.585938 258.632812 210.097656 263.429688 C 208.882812 267.355469 209.027344 275.511719 210.375 278.929688 C 212.554688 284.445312 216.363281 287.617188 221.441406 288.140625 C 223.886719 288.394531 229.441406 287.160156 229.117188 286.4375 C 229.042969 286.273438 227.875 284.566406 226.519531 282.640625 C 225.164062 280.714844 224.085938 278.929688 224.125 278.671875 C 224.164062 278.414062 225.460938 277.222656 227.007812 276.027344 L 229.816406 273.851562 L 232.15625 277.316406 C 233.445312 279.222656 234.664062 280.78125 234.867188 280.78125 C 235.070312 280.78125 235.621094 279.777344 236.09375 278.554688 C 236.761719 276.820312 236.953125 275.027344 236.953125 270.46875 C 236.953125 265.03125 236.859375 264.40625 235.640625 261.796875 C 232.996094 256.136719 228.597656 253.105469 223.125 253.171875 C 221.449219 253.191406 219.472656 253.386719 218.734375 253.609375 M 104.429688 257.027344 C 100.4375 258.9375 100.347656 259.019531 100.613281 260.390625 C 101.28125 263.851562 103.726562 269.117188 105.613281 271.164062 C 109.160156 275.007812 111.785156 274.308594 114.707031 268.734375 C 116.207031 265.878906 118.371094 259.777344 118.011719 259.417969 C 117.640625 259.046875 109.164062 255 108.835938 255.035156 C 108.660156 255.054688 106.675781 255.949219 104.429688 257.027344 " fill-opacity="1" fill-rule="evenodd"/></svg>