<svg xmlns="http://www.w3.org/2000/svg" xmlns:xlink="http://www.w3.org/1999/xlink" width="640" zoomAndPan="magnify" viewBox="0 0 480 479.999983" height="640" preserveAspectRatio="xMidYMid meet" version="1.0"><path fill="#122e47" d="M 224.976562 8.398438 C 215.714844 8.597656 211.101562 9.066406 210.484375 9.867188 C 208.71875 12.144531 206.597656 20.773438 205.003906 32.160156 C 204.113281 38.496094 202.871094 45.574219 202.242188 47.886719 C 200.957031 52.59375 201.449219 52.359375 183.839844 56.71875 C 179.089844 57.894531 174.789062 59.21875 174.289062 59.667969 C 173.785156 60.113281 172.707031 60.484375 171.886719 60.484375 C 171.070312 60.488281 169.164062 61.136719 167.652344 61.925781 C 162.519531 64.601562 160.292969 63.769531 154.558594 57.03125 C 151.65625 53.617188 146.40625 48.03125 142.894531 44.613281 C 134.191406 36.144531 132.902344 36.183594 120.367188 45.289062 C 96.109375 62.910156 80.640625 75.964844 80.640625 78.816406 C 80.640625 79.707031 83.554688 85.34375 87.121094 91.34375 C 90.683594 97.34375 94.875 104.6875 96.433594 107.664062 L 99.265625 113.074219 L 95.257812 118.386719 C 91.253906 123.6875 82.789062 137.351562 79.183594 144.328125 C 77.289062 147.996094 77.253906 148.015625 72.480469 147.507812 C 63.984375 146.605469 52.480469 144.988281 46.398438 143.839844 C 41.179688 142.851562 40.171875 142.917969 37.917969 144.394531 C 35.105469 146.234375 33.09375 150.332031 31.035156 158.398438 C 30.171875 161.765625 29.28125 165.128906 28.363281 168.480469 C 24.527344 182.378906 21.722656 193.109375 20.535156 198.429688 C 18.644531 206.890625 19.5625 208.695312 27.597656 212.335938 C 31.164062 213.949219 37.320312 216.734375 41.28125 218.519531 C 54.511719 224.492188 53.160156 222.160156 54.105469 240.65625 C 54.558594 249.535156 54.988281 259.140625 55.0625 262.003906 L 55.199219 267.203125 L 40.320312 274.738281 C 32.136719 278.882812 24.683594 283.175781 23.761719 284.28125 C 22.835938 285.386719 22.078125 287.582031 22.078125 289.15625 C 22.078125 291.789062 27.824219 310.542969 29.675781 313.953125 C 30.117188 314.761719 30.78125 316.808594 31.152344 318.5 C 31.523438 320.191406 32.226562 321.824219 32.714844 322.125 C 33.203125 322.425781 33.601562 323.339844 33.601562 324.152344 C 33.601562 324.964844 34.191406 326.992188 34.910156 328.65625 C 35.632812 330.320312 37.398438 334.808594 38.832031 338.632812 C 40.59375 343.320312 42.328125 346.214844 44.152344 347.511719 C 47.25 349.71875 48.632812 349.84375 54.128906 348.40625 C 56.300781 347.839844 60.671875 346.71875 63.839844 345.917969 C 67.007812 345.113281 70.316406 344.089844 71.195312 343.632812 C 72.074219 343.179688 74.898438 342.527344 77.46875 342.1875 C 81.792969 341.613281 82.289062 341.765625 84.035156 344.183594 C 88.570312 350.472656 94.015625 357.183594 100.527344 364.511719 C 104.371094 368.839844 107.519531 373.074219 107.519531 373.925781 C 107.519531 374.773438 104.761719 381.167969 101.390625 388.132812 C 90.960938 409.679688 90.714844 410.613281 94.324219 414.847656 C 95.511719 416.242188 103.390625 421.894531 111.839844 427.414062 C 134.085938 441.953125 141.855469 446.398438 145 446.398438 C 147 446.398438 153.253906 440.726562 158.761719 433.921875 C 165.46875 425.625 173.070312 418.410156 174.589844 418.890625 C 179.289062 420.386719 187.570312 422.75 193.914062 424.414062 C 197.871094 425.449219 201.613281 426.824219 202.230469 427.46875 C 202.851562 428.113281 204.257812 434.039062 205.359375 440.640625 C 209.535156 465.648438 209.894531 466.796875 214.238281 469.042969 C 217.53125 470.746094 268.679688 471.046875 271.789062 469.382812 C 274.863281 467.738281 275.5 465.488281 279.820312 441.121094 C 282.1875 427.78125 282.113281 427.910156 288.546875 425.902344 C 291.679688 424.925781 298.117188 422.871094 302.855469 421.332031 L 311.472656 418.542969 L 319.175781 426.925781 C 336.207031 445.457031 336.535156 445.761719 339.464844 445.714844 C 342.265625 445.671875 349.097656 441.96875 372 428.066406 C 388.90625 417.804688 392.109375 415.460938 392.453125 413.097656 C 392.808594 410.667969 389.890625 403.53125 379.105469 380.441406 C 377.574219 377.160156 376.320312 374.09375 376.320312 373.621094 C 376.320312 373.152344 378.804688 369.945312 381.839844 366.5 C 384.875 363.050781 390.382812 356.273438 394.078125 351.433594 L 400.800781 342.636719 L 404.640625 343.117188 C 406.753906 343.382812 411.71875 344.308594 415.679688 345.171875 C 435.148438 349.429688 438.109375 349.832031 440.503906 348.554688 C 442.714844 347.367188 444.28125 344.175781 447.84375 333.601562 C 449.085938 329.902344 452.117188 321.265625 454.582031 314.398438 C 463.523438 289.496094 463.773438 288.214844 460.53125 284.035156 C 459.863281 283.175781 452.792969 279.203125 444.824219 275.210938 C 436.851562 271.21875 430.128906 267.386719 429.886719 266.695312 C 429.644531 266.003906 429.699219 256.453125 430.003906 245.464844 L 430.558594 225.492188 L 433.921875 223.675781 C 435.769531 222.675781 441.601562 219.800781 446.878906 217.28125 C 452.160156 214.765625 458.160156 211.675781 460.210938 210.417969 L 463.945312 208.128906 L 463.351562 201.113281 C 463.027344 197.253906 462.34375 193.085938 461.839844 191.847656 C 461.332031 190.613281 459.988281 186.359375 458.847656 182.398438 C 453.246094 162.910156 449.375 150.480469 448.175781 148.144531 C 447.585938 146.992188 445.871094 145.535156 444.363281 144.910156 C 441.648438 143.785156 438.832031 144.117188 419.519531 147.851562 C 417.144531 148.308594 413.582031 148.710938 411.605469 148.742188 C 407.695312 148.804688 407.097656 148.179688 399.125 135.703125 C 397.148438 132.613281 392.953125 126.839844 389.800781 122.878906 C 386.648438 118.921875 384.054688 115.292969 384.035156 114.824219 C 384.015625 114.351562 387.703125 106.429688 392.226562 97.222656 C 396.757812 88.003906 400.492188 79.152344 400.535156 77.523438 C 400.640625 73.925781 398.214844 71.585938 377.554688 55.355469 C 362.105469 43.21875 354.472656 38.398438 350.707031 38.398438 C 347.417969 38.398438 347.730469 38.113281 327.75 59.289062 L 322.078125 65.300781 L 313.921875 62.320312 C 302.308594 58.082031 295.703125 55.960938 291.839844 55.234375 C 282.851562 53.539062 282.273438 52.6875 279.753906 37.441406 C 275.667969 12.753906 274.855469 10.03125 271.15625 8.621094 C 268.835938 7.742188 257.773438 7.6875 224.976562 8.398438 M 228 83.613281 C 210.117188 86.730469 204.800781 87.9375 195.839844 90.917969 C 179 96.519531 163.621094 104.648438 149.441406 115.441406 C 139.300781 123.164062 125.027344 137.550781 118.015625 147.125 C 112.078125 155.230469 103.253906 171.648438 100.347656 180 C 99.429688 182.640625 98.324219 185.664062 97.890625 186.71875 C 96.90625 189.128906 94.570312 197.433594 92.757812 204.960938 C 91.996094 208.128906 90.824219 216.644531 90.15625 223.886719 C 88.488281 241.957031 90.089844 258.460938 95.578125 279.839844 C 96.390625 283.007812 97.421875 286.464844 97.867188 287.519531 C 98.3125 288.574219 99.433594 291.601562 100.363281 294.238281 C 103.121094 302.097656 107.484375 310.929688 113.636719 321.121094 C 116.824219 326.398438 119.777344 331.152344 120.199219 331.679688 C 120.621094 332.207031 123.015625 335.222656 125.523438 338.382812 C 138.988281 355.351562 155.9375 368.644531 178.078125 379.597656 C 187.355469 384.191406 192.273438 386.113281 204 389.746094 C 214.855469 393.105469 222.777344 394.003906 241.921875 394.039062 C 263.632812 394.082031 266.25 393.703125 285.035156 387.757812 C 309.523438 380.003906 330.25 367.527344 349.058594 349.21875 C 364.753906 333.933594 376.058594 316.640625 384.996094 294.238281 C 387.902344 286.953125 391.3125 273.660156 392.835938 263.6875 C 394.402344 253.421875 394.410156 226.417969 392.847656 215.707031 C 387.347656 178.027344 368.871094 144.78125 339.324219 119.402344 C 334.277344 115.066406 321.566406 106.078125 316.277344 103.105469 C 296.050781 91.738281 280.835938 86.578125 258.71875 83.585938 C 249.847656 82.386719 234.957031 82.398438 228 83.613281 M 230.878906 105.941406 C 219.203125 111.636719 209.882812 125.632812 202.152344 149.074219 C 201.320312 151.601562 200.640625 154.445312 200.640625 155.394531 C 200.640625 157.660156 199.632812 158.59375 198.328125 157.53125 C 197.425781 156.800781 185.414062 152.601562 176.160156 149.78125 C 169.425781 147.734375 157.253906 146.761719 150.8125 147.761719 C 143.269531 148.929688 140.148438 150.34375 134.59375 155.097656 C 127.007812 161.589844 124.171875 170.550781 126.355469 181.132812 C 128.898438 193.453125 140.554688 213.335938 155.839844 231.4375 L 161.988281 238.714844 L 155.78125 244.878906 C 141.949219 258.605469 130.394531 275.453125 126.417969 287.699219 C 121.140625 303.945312 128.601562 318.726562 144.71875 323.957031 C 150.886719 325.960938 170.660156 325.546875 180.480469 323.207031 C 192.265625 320.402344 195.363281 319.546875 197.078125 318.621094 C 199.230469 317.460938 200.640625 318.277344 200.640625 320.675781 C 200.640625 325.886719 209.707031 347.847656 215.136719 355.796875 C 218.960938 361.386719 227.046875 369.078125 231.199219 371.070312 C 232.929688 371.902344 234.660156 372.738281 236.386719 373.582031 C 242.097656 376.386719 252.792969 373.144531 261 366.121094 C 269.558594 358.792969 280.738281 337.070312 282.8125 323.738281 C 283.164062 321.484375 283.753906 319.449219 284.125 319.222656 C 284.492188 318.996094 287.136719 319.460938 289.996094 320.253906 C 309.441406 325.664062 329.683594 327.132812 339.429688 323.84375 C 352.203125 319.527344 359.039062 310.785156 359.039062 298.761719 C 359.039062 284.554688 348.34375 265.660156 328.324219 244.496094 C 325.417969 241.425781 322.882812 238.472656 322.695312 237.9375 C 322.503906 237.402344 323.410156 235.8125 324.710938 234.402344 C 330.3125 228.316406 340.199219 215.511719 344.984375 208.136719 C 358.621094 187.125 361.269531 173.046875 354.0625 159.839844 C 348.640625 149.902344 334.410156 144.378906 320.496094 146.808594 C 311.652344 148.351562 302.421875 151.046875 292.089844 155.105469 L 284.058594 158.257812 L 283.148438 155.867188 C 282.648438 154.550781 282.238281 152.953125 282.238281 152.316406 C 282.238281 151.679688 280.941406 147.710938 279.355469 143.496094 C 272.601562 125.570312 264.898438 114.070312 255.40625 107.734375 C 250.625 104.542969 249.34375 104.152344 242.878906 103.890625 C 236.828125 103.644531 234.914062 103.972656 230.878906 105.941406 M 235.183594 120.359375 C 231.023438 123.191406 226.71875 129.152344 222.957031 137.28125 C 219.734375 144.25 215.441406 156.640625 214.578125 161.472656 C 214.035156 164.519531 214.207031 164.734375 219.085938 167.09375 C 221.878906 168.445312 228.375 171.8125 233.53125 174.578125 L 242.898438 179.601562 L 249.371094 175.976562 C 253.730469 173.546875 258.128906 171.183594 262.558594 168.886719 C 269.203125 165.464844 269.277344 165.382812 269.054688 161.785156 C 268.511719 153.03125 259.308594 132.476562 252.683594 125.214844 C 245.644531 117.5 241.1875 116.265625 235.183594 120.359375 M 319.679688 162.222656 C 311.347656 164.289062 308.207031 165.226562 301.925781 167.527344 C 298.234375 168.878906 293.554688 170.71875 291.527344 171.613281 C 287.355469 173.453125 287.488281 171.367188 290.351562 190.078125 C 291.199219 195.625 292.152344 203.207031 292.46875 206.933594 L 293.050781 213.710938 L 298.445312 217.476562 C 301.414062 219.550781 305.484375 222.726562 307.492188 224.539062 L 311.140625 227.835938 L 314.210938 224.183594 C 327.503906 208.375 340.800781 187.859375 340.800781 183.152344 C 340.800781 182.273438 341.230469 181.285156 341.761719 180.960938 C 342.289062 180.632812 342.71875 178 342.71875 175.109375 C 342.71875 169.152344 340.984375 165.761719 336.84375 163.617188 C 333.464844 161.871094 324.152344 161.113281 319.679688 162.222656 M 147.742188 164.152344 C 144.113281 166.070312 141.816406 168.902344 140.871094 172.628906 C 139.574219 177.726562 146.113281 192.894531 154.804688 204.960938 C 166.148438 220.703125 171.425781 227.457031 172.410156 227.488281 C 173.488281 227.519531 187.765625 216.390625 189.820312 213.910156 C 190.453125 213.152344 191.445312 207.371094 192.03125 201.066406 C 192.613281 194.761719 193.464844 188.304688 193.921875 186.71875 C 194.375 185.136719 195.035156 181.140625 195.386719 177.839844 C 195.976562 172.328125 195.878906 171.839844 194.175781 171.839844 C 193.15625 171.839844 192.054688 171.574219 191.730469 171.25 C 190.851562 170.371094 179.039062 166.289062 171.136719 164.132812 C 162.175781 161.6875 152.386719 161.695312 147.742188 164.152344 M 210.367188 179.898438 C 209.902344 180.480469 209.230469 184.070312 208.867188 187.871094 C 208.507812 191.675781 207.84375 196.070312 207.394531 197.640625 C 206.945312 199.210938 206.785156 200.703125 207.039062 200.957031 C 207.601562 201.519531 227.433594 188.921875 227.484375 187.972656 C 227.503906 187.605469 223.847656 185.398438 219.363281 183.070312 C 213.6875 180.125 210.949219 179.160156 210.367188 179.898438 M 264.789062 183.863281 C 258.800781 186.941406 256.003906 189.121094 258.050781 189.121094 C 258.765625 189.121094 269.664062 196.148438 275.117188 200.125 C 275.816406 200.636719 276.574219 200.851562 276.804688 200.605469 C 277.03125 200.359375 276.527344 195.730469 275.683594 190.320312 C 274.5 182.734375 273.808594 180.492188 272.671875 180.527344 C 271.863281 180.554688 268.316406 182.054688 264.789062 183.863281 M 234.238281 202.078125 C 229.753906 204.925781 223.488281 208.871094 220.320312 210.847656 C 217.152344 212.824219 214.34375 214.691406 214.078125 214.988281 C 213.816406 215.289062 211.828125 216.6875 209.660156 218.089844 C 206.085938 220.40625 205.613281 221.191406 204.550781 226.597656 C 203.386719 232.5 203.976562 256.984375 205.324219 258.894531 C 206.875 261.085938 237.648438 281.863281 240.128906 282.386719 C 242.425781 282.875 274.546875 261.644531 278.121094 257.28125 C 279.589844 255.484375 279.804688 227.675781 278.386719 222.71875 C 277.542969 219.765625 275.457031 218.050781 261.179688 208.554688 C 252.246094 202.613281 244.367188 197.5625 243.667969 197.328125 C 242.972656 197.09375 238.726562 199.234375 234.238281 202.078125 M 237.121094 218.542969 C 226.367188 222.046875 221.035156 228.925781 220.871094 239.507812 C 220.769531 246.398438 224.382812 253.078125 230.464844 257.230469 C 234.835938 260.210938 235.820312 260.480469 242.445312 260.480469 C 248.890625 260.480469 250.09375 260.175781 253.699219 257.640625 C 261.988281 251.816406 265.542969 242.550781 263.042969 233.28125 C 261.539062 227.707031 254.5 220.484375 249.121094 218.992188 C 245.195312 217.90625 239.699219 217.699219 237.121094 218.542969 M 186.238281 235.933594 L 182.878906 239.003906 L 186.238281 242.007812 L 189.601562 245.011719 L 189.902344 242.027344 C 190.066406 240.382812 190.066406 237.648438 189.902344 235.949219 L 189.601562 232.859375 Z M 293.761719 238.558594 C 293.761719 241.464844 294.101562 243.839844 294.515625 243.839844 C 294.933594 243.839844 296.730469 242.621094 298.515625 241.132812 L 301.761719 238.421875 L 298.390625 235.851562 C 296.535156 234.4375 294.734375 233.28125 294.390625 233.28125 C 294.042969 233.28125 293.761719 235.65625 293.761719 238.558594 M 305.761719 253.222656 C 303.121094 255.71875 299.242188 259.238281 297.140625 261.042969 C 293.613281 264.074219 293.273438 264.800781 292.675781 270.640625 C 292.046875 276.789062 289.453125 295.101562 288.371094 301.019531 C 287.875 303.75 288.097656 304.039062 291.515625 305.105469 C 302.863281 308.640625 311.347656 309.925781 323.855469 310.011719 C 340.164062 310.121094 344.339844 307.210938 343.445312 296.371094 C 342.988281 290.859375 340.339844 283.15625 338.640625 282.398438 C 338.242188 282.222656 337.921875 281.707031 337.921875 281.25 C 337.921875 280.101562 332.445312 271.941406 328.867188 267.75 C 327.246094 265.855469 323.328125 261.367188 320.160156 257.78125 C 316.992188 254.199219 314.054688 250.671875 313.632812 249.953125 C 312.371094 247.796875 310.808594 248.445312 305.761719 253.222656 M 164.511719 257.085938 C 160.742188 261.152344 156.097656 266.425781 154.183594 268.800781 C 152.660156 270.699219 151.121094 272.589844 149.574219 274.472656 C 148.953125 275.210938 146.578125 279.441406 144.300781 283.871094 C 140.800781 290.671875 140.160156 292.792969 140.160156 297.566406 C 140.160156 302.566406 140.492188 303.542969 143.058594 306.109375 C 145.070312 308.121094 147.308594 309.210938 150.386719 309.671875 C 157.5 310.738281 175.449219 309.367188 183.359375 307.148438 C 187.320312 306.039062 191.539062 304.898438 192.734375 304.613281 C 195.757812 303.886719 195.957031 303.25 194.828125 297.945312 C 194.28125 295.378906 193.191406 288.097656 192.398438 281.761719 C 190.457031 266.15625 189.753906 264.023438 185.511719 260.820312 C 183.546875 259.335938 179.914062 256.203125 177.4375 253.859375 C 174.964844 251.515625 172.582031 249.621094 172.148438 249.644531 C 171.714844 249.667969 168.277344 253.015625 164.511719 257.085938 M 265.710938 284.410156 C 260.578125 287.703125 256.484375 290.753906 256.609375 291.183594 C 256.953125 292.347656 271.921875 298.671875 273.183594 298.1875 C 273.78125 297.960938 274.546875 294.78125 274.886719 291.128906 C 275.226562 287.472656 275.777344 283.113281 276.113281 281.441406 C 276.445312 279.769531 276.339844 278.402344 275.878906 278.410156 C 275.417969 278.414062 270.839844 281.113281 265.710938 284.410156 M 207.363281 282.480469 C 207.808594 284.195312 208.464844 288.300781 208.820312 291.601562 C 209.175781 294.902344 209.792969 297.804688 210.191406 298.050781 C 210.589844 298.296875 212.488281 297.695312 214.410156 296.714844 C 216.332031 295.734375 219.636719 294.242188 221.753906 293.394531 C 223.871094 292.550781 225.585938 291.527344 225.570312 291.128906 C 225.53125 290.261719 208.75 279.359375 207.453125 279.359375 C 206.914062 279.359375 206.878906 280.605469 207.363281 282.480469 M 230.398438 305.386719 C 225.382812 307.957031 219.660156 310.710938 217.679688 311.503906 C 215.699219 312.296875 214.085938 313.488281 214.09375 314.152344 C 214.109375 315.929688 217.519531 326.5 220.453125 333.882812 C 225.539062 346.691406 234.34375 357.472656 240.683594 358.660156 C 249.878906 360.386719 259.339844 348.449219 266.832031 325.664062 C 270.347656 314.984375 270.445312 313.296875 267.601562 312.441406 C 266.410156 312.085938 260.347656 309.25 254.125 306.136719 C 247.902344 303.027344 242.070312 300.53125 241.164062 300.59375 C 240.261719 300.65625 235.414062 302.8125 230.398438 305.386719 " fill-opacity="1" fill-rule="evenodd"/></svg>